<svg width="1076" height="852" viewBox="0 0 1076 852" fill="none" xmlns="http://www.w3.org/2000/svg">
<path d="M272.792 516.499C271.727 516.617 270.664 516.749 269.6 516.873C269.997 516.839 271.19 516.711 273.717 516.412C273.436 516.439 273.154 516.463 272.873 516.489C272.846 516.493 272.82 516.496 272.792 516.499Z" fill="black"/>
<path d="M596.684 688.08C625.735 652.575 659.446 620.94 696.263 593.611C723.333 573.516 748.361 558.116 778.345 542.617C780.476 541.515 784.623 539.367 781.155 537.245C777.496 535.008 767.362 536.224 763.899 536.506C754.514 537.271 745.108 538.643 735.942 540.798C728.855 542.464 721.343 544.066 714.84 547.427C654.361 578.688 598.373 619.03 551.53 668.575C535.852 685.158 521.054 702.767 507.663 721.361C487.872 696.63 466.148 673.351 443.786 651.203C404.413 612.205 361.671 575.527 314.611 546.075C297.425 535.32 279.436 525.354 260.466 518.019C263.508 517.61 266.554 517.234 269.602 516.875C268.861 516.939 270.894 516.671 272.194 516.552C272.421 516.531 272.649 516.511 272.876 516.491C273.753 516.393 274.631 516.307 275.507 516.202C274.846 516.281 274.256 516.351 273.72 516.415C275.626 516.238 277.532 516.058 279.439 515.898C283.668 515.543 287.9 515.237 292.135 514.978C294.19 514.853 296.257 514.783 298.314 514.647C299.208 514.614 300.103 514.58 300.997 514.551C309.783 514.272 318.575 514.201 327.363 514.335C331.459 514.398 335.552 514.528 339.646 514.66C339.658 514.661 339.668 514.662 339.681 514.662C340.59 514.715 341.499 514.751 342.408 514.799C344.834 514.926 347.257 515.07 349.68 515.229C367.591 516.402 385.444 518.434 403.162 521.306C423.163 524.548 441.378 528.608 461.147 534.082C473.634 537.54 489.297 533.942 501.576 531.486C508.417 530.118 515.504 528.645 522.031 526.139C524.456 525.208 531.893 523.3 531.851 519.932C531.124 461.426 537.405 402.957 548.526 345.558C550.631 334.691 552.924 323.855 555.371 313.052C575.176 344.954 598.583 374.585 625.503 400.822C639.151 414.123 653.652 426.558 668.944 437.931C672.064 440.251 683.349 438.902 686.2 438.669C693.991 438.035 701.71 436.867 709.373 435.335C716.214 433.967 723.301 432.494 729.828 429.988C733.48 428.585 737.753 427.434 739.648 423.781C741.42 420.369 743.218 416.97 745.034 413.581C774.201 359.784 809.792 309.363 851.609 264.679C851.78 284.807 853.49 304.954 856.039 324.782C861.588 367.948 871.571 410.628 885.219 451.942C892.549 474.128 901.007 495.947 910.875 517.131C912.242 520.065 920.501 519.597 922.226 519.604C930.748 519.639 939.753 518.433 948.099 516.896C950.928 516.374 985.462 509.331 983.157 504.386C965.126 465.676 951.605 424.85 941.592 383.366C931.615 342.027 924.933 299.555 924.07 256.984C923.642 235.85 924.705 214.63 928.391 193.793C929.262 188.873 897.014 193.135 895.992 193.291C888.308 194.466 880.536 195.877 873.075 198.083C867.651 199.686 861.661 201.168 857.112 204.679C795.588 252.171 743.439 311.169 701.742 376.66C699.744 379.798 697.781 382.956 695.834 386.123C659.036 349.755 628.752 306.978 605.48 260.786C597.54 245.027 590.443 228.862 584.119 212.39C582.994 209.459 574.174 209.922 572.768 209.916C564.246 209.882 555.24 211.088 546.895 212.625C538.421 214.186 529.72 215.833 521.656 218.929C518.304 220.216 513.217 221.443 511.836 225.135C504.663 244.309 498.953 264.116 493.573 283.849C480.562 331.574 470.902 380.286 465.158 429.425C462.279 454.06 460.448 478.813 459.795 503.602C400.978 494.814 341.128 494.726 281.792 502.244C254.851 505.657 228.018 510.489 201.609 516.824C194.803 518.457 186.802 520.116 180.507 523.453C179.183 524.155 173.278 527.464 177.697 528.825C222.902 542.736 263.613 571.615 300.313 600.642C312.613 610.371 324.6 620.488 336.337 630.89C377.057 667.25 415.281 707.057 448.075 750.766C456.054 761.401 463.669 772.31 470.726 783.58C472.553 786.497 479.745 786.043 482.078 786.053C490.599 786.088 499.605 784.882 507.95 783.345C516.424 781.783 525.125 780.137 533.189 777.041C536.642 775.714 541.459 774.524 543.009 770.835C545.078 765.912 547.569 761.144 550.096 756.439C563.271 732.185 579.222 709.422 596.684 688.08Z" fill="black"/>
<path d="M940.967 145.655C978.539 134.362 973.41 100.68 971.834 94.3579C966.461 72.7923 945.51 64.7928 925.97 71.7293C888.036 85.1941 890.621 118.626 904.346 135.269C912.935 145.683 928.038 149.54 940.967 145.655Z" fill="black"/>
<path d="M546.342 162.383C590.291 149.174 584.291 109.774 582.448 102.379C576.164 77.152 551.656 67.7966 528.8 75.9087C484.426 91.6594 487.45 130.765 503.505 150.233C513.552 162.417 531.219 166.929 546.342 162.383Z" fill="black"/>
<path d="M93.8951 484.773C55.9607 498.237 58.5453 531.67 72.2708 548.312C80.86 558.727 95.9625 562.585 108.891 558.699C146.464 547.406 141.335 513.724 139.759 507.401C134.386 485.836 113.435 477.837 93.8951 484.773Z" fill="black"/>
</svg>
