<svg width="760" height="500" viewBox="0 0 760 500" fill="none" xmlns="http://www.w3.org/2000/svg">
<mask id="mask0_4_14" style="mask-type:luminance" maskUnits="userSpaceOnUse" x="0" y="0" width="760" height="500">
<path d="M760 0H0V500H760V0Z" fill="white"/>
</mask>
<g mask="url(#mask0_4_14)">
<path d="M798.243 520.05L-25.3232 526.82L-16.4362 188.16L-15.5242 153.6L43.4213 196.94L77.7936 174.66L90.4502 205.73L203.822 274.09L226.733 268.77L408.698 320.65L501.367 263.45L523.275 275.42L566.403 258.34C566.403 258.34 601.454 232.86 605.497 198.27C609.54 163.69 605.497 137.09 605.497 137.09H625.713C625.713 137.09 744.151 174.19 786.114 234.19C796.419 248.93 802.398 273.68 805.539 302.63C815.217 391.53 798.243 520.05 798.243 520.05Z" fill="#DDBB64"/>
<path d="M93.9662 227.54L74.7535 226.54L93.9662 250C93.9662 250 16.0815 206.12 -16.4364 188.16L-15.5244 153.6L43.4212 196.94L77.7935 174.66L90.45 205.73L203.822 274.09L93.9662 227.54Z" fill="#E9D299"/>
<path d="M137.434 274.09L144.511 287.395L260.767 315.329L137.434 274.09Z" fill="#E9D299"/>
<path d="M226.733 268.77V278.417L315.357 309.343L295.138 315.329L356.805 324.307L277.953 355.234L408.698 320.65L226.733 268.77Z" fill="#E9D299"/>
<path d="M501.367 263.452L492.269 289.391L470.028 304.355L481.617 325.305L361.859 364.212L519.564 331.955L510.465 321.315L604.482 288.393L547.87 281.41L566.402 258.34L523.275 275.42L501.367 263.452Z" fill="#E9D299"/>
<path d="M523.537 277.894L513.322 288.284L539.944 281.731L556.225 265.854L523.537 277.894Z" fill="#F3E7C8"/>
<path d="M805.539 302.63C801.952 352.98 797.311 382.24 791.809 338.2C778.24 229.62 691.418 181.65 691.418 181.65L614.587 238.51L638.856 164.69H617.12L628.743 153.6L605.497 137.09H625.713C625.713 137.09 744.151 174.19 786.114 234.19C796.419 248.93 802.398 273.68 805.539 302.63Z" fill="#E9D299"/>
<path d="M690.41 203.595L705.518 222.433L634.81 248.422L690.41 203.595Z" fill="#E9D299"/>
<path d="M181.909 311.276V321.315H230.439L181.909 311.276Z" fill="#E9D299"/>
<path d="M-25.3232 209.581L93.6927 283.405L-31.3901 258.34L-25.3232 209.581Z" fill="#E9D299"/>
</g>
</svg>
